<?xml version="1.0" encoding="UTF-8"?><svg id="Layer_1" xmlns="http://www.w3.org/2000/svg" viewBox="0 0 534.83 500"><defs><style>.cls-1{fill:#e7ded5;stroke-width:0px;}</style></defs><path class="cls-1" d="M506.36,0H222.16c-15.7,0-28.47,12.77-28.47,28.46v130.4h-57.05c-5.57-32.4-33.85-57.13-67.82-57.13C30.88,101.74,0,132.61,0,170.57s30.88,68.83,68.83,68.83c33.96,0,62.24-24.73,67.82-57.13h57.05v135.47h-57.05c-5.57-32.4-33.85-57.13-67.82-57.13-37.95,0-68.83,30.88-68.83,68.83s30.88,68.83,68.83,68.83c33.96,0,62.24-24.73,67.82-57.13h57.05v130.4c0,15.7,12.77,28.46,28.47,28.46h284.2c15.7,0,28.47-12.77,28.47-28.46V28.46c0-15.7-12.77-28.46-28.47-28.46ZM68.83,216c-25.05,0-45.43-20.38-45.43-45.43s20.38-45.43,45.43-45.43,45.44,20.38,45.44,45.43-20.38,45.43-45.44,45.43ZM68.83,374.87c-25.05,0-45.43-20.38-45.43-45.43s20.38-45.43,45.43-45.43,45.44,20.38,45.44,45.43-20.38,45.43-45.44,45.43ZM217.09,28.46c0-2.8,2.27-5.07,5.07-5.07h130.4v135.47h-135.47V28.46ZM352.57,317.74h-135.47v-135.47h135.47v135.47ZM352.57,476.61h-130.4c-2.8,0-5.07-2.27-5.07-5.07v-130.4h135.47v135.47ZM511.44,471.54c0,2.8-2.27,5.07-5.07,5.07h-130.4v-135.47h135.48v130.4ZM511.44,317.74h-135.48v-135.47h135.48v135.47ZM375.96,158.87V23.39h130.4c2.8,0,5.07,2.27,5.07,5.07v130.4h-135.48Z"/></svg>