<?xml version="1.0" encoding="UTF-8"?><svg id="Layer_1" xmlns="http://www.w3.org/2000/svg" viewBox="0 0 1152.62 500"><defs><style>.cls-1{fill:#e7ded5;stroke-width:0px;}</style></defs><path class="cls-1" d="M638.41,150.98h-15.24c-2.66,0-3.99-1.27-3.99-3.81V56.24c0-1.33-.67-2-2-2h-20.69c-2.54,0-3.81-1.27-3.81-3.81v-12.34c0-2.54,1.27-3.81,3.81-3.81h68.61c2.54,0,3.81,1.27,3.81,3.81v12.34c0,2.54-1.27,3.81-3.81,3.81h-20.69c-1.45,0-2.18.67-2.18,2v90.93c0,2.54-1.27,3.81-3.81,3.81Z"/><path class="cls-1" d="M700.12,150.98h-15.43c-2.54,0-3.81-1.27-3.81-3.81V27.21c0-2.54,1.27-3.81,3.81-3.81h15.43c2.54,0,3.81,1.27,3.81,3.81v41.02h.73c2.66-6.53,8.59-9.8,17.79-9.8h5.81c19,0,28.5,9.86,28.5,29.58v59.17c0,2.54-1.33,3.81-3.99,3.81h-15.24c-2.54,0-3.81-1.27-3.81-3.81v-58.08c0-3.87-.82-6.62-2.45-8.26-1.63-1.63-4.39-2.45-8.26-2.45h-6.53c-8.35,0-12.52,4.6-12.52,13.79v54.99c0,2.54-1.27,3.81-3.81,3.81Z"/><path class="cls-1" d="M844.04,150.98h-40.11c-9.56,0-16.94-2.54-22.14-7.62-5.2-5.08-7.8-12.4-7.8-21.96v-33.39c0-9.56,2.6-16.88,7.8-21.96,5.2-5.08,12.58-7.62,22.14-7.62h14.34c9.56,0,16.94,2.54,22.14,7.62,5.2,5.08,7.8,12.4,7.8,21.96v23.05c0,2.54-1.27,3.81-3.81,3.81h-45.56c-1.45,0-2.18.67-2.18,2v3.99c0,3.75.82,6.44,2.45,8.08,1.63,1.63,4.38,2.45,8.26,2.45h36.66c2.54,0,3.81,1.33,3.81,3.99v11.98c0,1.33-.27,2.27-.82,2.81-.54.54-1.54.82-2.99.82ZM798.85,99.44h24.68c1.33,0,2-.66,2-2v-8.71c0-3.87-.79-6.59-2.36-8.17-1.57-1.57-4.3-2.36-8.17-2.36h-7.62c-3.87,0-6.6.79-8.17,2.36-1.57,1.57-2.36,4.3-2.36,8.17v8.71c0,1.33.66,2,2,2Z"/><path class="cls-1" d="M602.29,309.98v-109.08c0-2.54,1.27-3.81,3.81-3.81h44.83c9.44,0,16.79,2.57,22.05,7.71,5.26,5.14,7.9,12.43,7.9,21.87v57.53c0,9.44-2.63,16.73-7.9,21.87-5.26,5.14-12.61,7.71-22.05,7.71h-44.83c-2.54,0-3.81-1.27-3.81-3.81ZM627.34,293.83h19.78c3.87,0,6.62-.82,8.26-2.45,1.63-1.63,2.45-4.38,2.45-8.26v-55.35c0-3.87-.82-6.62-2.45-8.26-1.64-1.63-4.39-2.45-8.26-2.45h-19.78c-1.33,0-2,.67-2,2v72.78c0,1.33.66,2,2,2Z"/><path class="cls-1" d="M769.08,313.79h-40.11c-9.56,0-16.94-2.54-22.14-7.62-5.2-5.08-7.8-12.4-7.8-21.96v-33.39c0-9.56,2.6-16.88,7.8-21.96,5.2-5.08,12.58-7.62,22.14-7.62h14.34c9.56,0,16.94,2.54,22.14,7.62,5.2,5.08,7.8,12.4,7.8,21.96v23.05c0,2.54-1.27,3.81-3.81,3.81h-45.56c-1.45,0-2.18.67-2.18,2v3.99c0,3.75.82,6.44,2.45,8.08s4.38,2.45,8.26,2.45h36.66c2.54,0,3.81,1.33,3.81,3.99v11.98c0,1.33-.27,2.27-.82,2.81-.54.54-1.54.82-2.99.82ZM723.89,262.25h24.68c1.33,0,2-.66,2-2v-8.71c0-3.87-.79-6.59-2.36-8.17-1.57-1.57-4.3-2.36-8.17-2.36h-7.62c-3.87,0-6.6.79-8.17,2.36-1.57,1.57-2.36,4.3-2.36,8.17v8.71c0,1.33.66,2,2,2Z"/><path class="cls-1" d="M832.34,265.15h-34.49c-2.54,0-3.81-1.27-3.81-3.81v-10.71c0-2.66,1.27-3.99,3.81-3.99h34.49c2.54,0,3.81,1.33,3.81,3.99v10.71c0,2.54-1.27,3.81-3.81,3.81Z"/><path class="cls-1" d="M875.44,313.79h-15.43c-2.54,0-3.81-1.27-3.81-3.81v-109.08c0-2.54,1.27-3.81,3.81-3.81h43.2c9.44,0,16.81,2.6,22.14,7.8,5.32,5.2,7.98,12.52,7.98,21.96v14.16c0,13.67-5.38,22.75-16.15,27.22v.73l19.42,40.47c1.09,2.9.06,4.36-3.09,4.36h-14.7c-2.18,0-3.75-.24-4.72-.73-.97-.48-1.76-1.51-2.36-3.08l-18.15-39.2h-12.16c-1.45,0-2.18.67-2.18,2v37.21c0,2.54-1.27,3.81-3.81,3.81ZM881.24,252.27h17.79c3.87,0,6.72-.82,8.53-2.45,1.81-1.63,2.72-4.26,2.72-7.89v-14.16c0-3.75-.91-6.47-2.72-8.17-1.82-1.69-4.66-2.54-8.53-2.54h-17.79c-1.33,0-2,.67-2,2v31.22c0,1.33.66,2,2,2Z"/><path class="cls-1" d="M954.57,205.62v-15.79c0-2.42,1.21-3.63,3.63-3.63h15.79c2.42,0,3.63,1.15,3.63,3.45v15.97c0,2.42-1.21,3.63-3.63,3.63h-15.79c-2.42,0-3.63-1.21-3.63-3.63ZM954.57,309.98v-84.94c0-2.54,1.21-3.81,3.63-3.81h15.61c2.54,0,3.81,1.27,3.81,3.81v84.94c0,1.57-.27,2.6-.82,3.08-.55.49-1.48.73-2.81.73h-15.61c-2.54,0-3.81-1.27-3.81-3.81Z"/><path class="cls-1" d="M1033.52,313.79h-34.49c-2.42,0-3.63-1.27-3.63-3.81v-11.62c0-1.33.24-2.27.73-2.81.48-.54,1.45-.82,2.9-.82h30.31c5.93,0,8.89-1.82,8.89-5.45v-.91c0-2.9-2.48-5.69-7.44-8.35l-17.97-9.98c-6.17-3.14-10.71-6.53-13.61-10.16-2.9-3.63-4.36-8.29-4.36-13.98,0-8.47,2.24-14.7,6.71-18.69,4.48-3.99,11.5-5.99,21.05-5.99h30.31c2.42,0,3.63,1.27,3.63,3.81v11.8c0,1.33-.24,2.27-.73,2.81-.49.55-1.45.82-2.9.82h-25.23c-5.93,0-8.89,1.51-8.89,4.54v.91c0,2.66,2.6,5.39,7.8,8.17l18.33,10.89c6.29,3.39,10.71,6.87,13.25,10.44,2.54,3.57,3.81,8.26,3.81,14.07,0,16.21-9.5,24.32-28.49,24.32Z"/><path class="cls-1" d="M1097.22,313.79h-15.43c-2.54,0-3.81-1.27-3.81-3.81v-119.97c0-2.54,1.27-3.81,3.81-3.81h15.43c2.54,0,3.81,1.27,3.81,3.81v119.97c0,2.54-1.27,3.81-3.81,3.81ZM1130.97,221.23h17.61c1.45,0,2.42.43,2.9,1.27.48.85.3,1.94-.55,3.27l-24.14,39.75v.73l25.23,43.01c.73,1.21.79,2.27.18,3.18-.61.91-1.7,1.36-3.27,1.36h-15.61c-2.06,0-3.54-.24-4.44-.73-.91-.48-1.85-1.51-2.81-3.08l-23.05-40.47c-1.09-1.93-1.09-3.93,0-5.99l21.78-38.66c1.33-2.42,3.39-3.63,6.17-3.63Z"/><path class="cls-1" d="M679.79,359.9h26.86c2.54,0,3.81,1.27,3.81,3.81v109.08c0,2.54-1.27,3.81-3.81,3.81h-14.88c-2.54,0-3.81-1.27-3.81-3.81v-86.03h-.73l-18.51,60.8c-.73,2.42-2.24,3.63-4.54,3.63h-15.24c-2.3,0-3.81-1.21-4.54-3.63l-18.88-60.98h-.73v86.21c0,1.45-.25,2.45-.73,2.99-.49.55-1.52.82-3.09.82h-14.88c-2.54,0-3.81-1.27-3.81-3.81v-109.08c0-2.54,1.27-3.81,3.81-3.81h27.04c1.69,0,2.84.85,3.45,2.54l19.24,64.07h1.09l19.42-64.07c.36-1.69,1.51-2.54,3.45-2.54Z"/><path class="cls-1" d="M764.73,476.61h-4.36c-9.56,0-16.94-2.54-22.14-7.62-5.2-5.08-7.8-12.4-7.8-21.96v-33.39c0-9.56,2.6-16.88,7.8-21.96,5.2-5.08,12.58-7.62,22.14-7.62h41.92c2.66,0,3.99,1.27,3.99,3.81v84.94c0,2.54-1.33,3.81-3.99,3.81h-15.24c-2.54,0-3.81-1.27-3.81-3.81v-5.99h-.73c-1.33,3.27-3.69,5.72-7.08,7.35-3.39,1.63-6.96,2.45-10.71,2.45ZM783.24,442.85v-36.84c0-1.33-.73-2-2.18-2h-17.06c-3.87,0-6.6.82-8.17,2.45-1.58,1.63-2.36,4.39-2.36,8.26v31.22c0,3.87.79,6.62,2.36,8.26,1.57,1.64,4.29,2.45,8.17,2.45h6.71c8.35,0,12.52-4.6,12.52-13.79Z"/><path class="cls-1" d="M828.25,404.01h-7.26c-1.45,0-2.45-.24-2.99-.73-.55-.48-.82-1.45-.82-2.9v-12.52c0-2.54,1.27-3.81,3.81-3.81h7.26c1.33,0,2-.66,2-2v-17.24c0-2.54,1.33-3.81,3.99-3.81h15.24c2.54,0,3.81,1.27,3.81,3.81v17.24c0,1.33.73,2,2.18,2h14.16c2.54,0,3.81,1.27,3.81,3.81v12.52c0,1.33-.27,2.27-.82,2.81-.54.55-1.54.82-2.99.82h-14.16c-1.45,0-2.18.67-2.18,2v40.11c0,3.75.85,6.44,2.54,8.08,1.69,1.64,4.47,2.45,8.35,2.45h7.26c2.54,0,3.81,1.27,3.81,3.81v12.52c0,1.33-.27,2.27-.82,2.81s-1.54.82-2.99.82h-11.07c-9.56,0-16.97-2.54-22.23-7.62-5.26-5.08-7.9-12.34-7.9-21.78v-41.2c0-1.33-.67-2-2-2Z"/><path class="cls-1" d="M909.56,476.61h-15.43c-2.54,0-3.81-1.27-3.81-3.81v-84.94c0-2.54,1.27-3.81,3.81-3.81h15.43c2.54,0,3.81,1.27,3.81,3.81v6.17h.73c1.33-3.27,3.69-5.75,7.08-7.44,3.39-1.69,6.95-2.54,10.71-2.54h6.53c2.42,0,3.63,1.27,3.63,3.81v12.52c0,1.45-.27,2.45-.82,2.99s-1.48.76-2.81.63h-12.52c-8.35,0-12.52,4.72-12.52,14.16v54.63c0,2.54-1.27,3.81-3.81,3.81Z"/><path class="cls-1" d="M954.57,368.44v-15.79c0-2.42,1.21-3.63,3.63-3.63h15.79c2.42,0,3.63,1.15,3.63,3.45v15.97c0,2.42-1.21,3.63-3.63,3.63h-15.79c-2.42,0-3.63-1.21-3.63-3.63ZM954.57,472.79v-84.94c0-2.54,1.21-3.81,3.63-3.81h15.61c2.54,0,3.81,1.27,3.81,3.81v84.94c0,1.57-.27,2.6-.82,3.09-.55.49-1.48.73-2.81.73h-15.61c-2.54,0-3.81-1.27-3.81-3.81Z"/><path class="cls-1" d="M1013.37,476.61h-18.33c-3.15,0-3.99-1.27-2.54-3.81l22.87-43.38-22.87-41.56c-1.21-2.54-.49-3.81,2.18-3.81h18.51c2.91,0,4.78,1.27,5.63,3.81l11.44,27.59h.73l9.98-27.59c.85-2.54,2.72-3.81,5.62-3.81h18.15c3.15,0,3.93,1.27,2.36,3.81l-21.78,41.56,23.41,43.38c.6,1.09.69,2,.27,2.72-.43.73-1.24,1.09-2.45,1.09h-18.7c-2.54,0-4.35-1.27-5.44-3.81l-11.43-27.77h-.73l-11.44,27.77c-.85,2.54-2.66,3.81-5.44,3.81Z"/><path class="cls-1" d="M506.36,0H222.16c-15.7,0-28.47,12.77-28.47,28.46v130.4h-57.05c-5.57-32.4-33.85-57.13-67.82-57.13C30.88,101.74,0,132.61,0,170.57s30.88,68.83,68.83,68.83c33.96,0,62.24-24.73,67.82-57.13h57.05v135.47h-57.05c-5.57-32.4-33.85-57.13-67.82-57.13-37.95,0-68.83,30.88-68.83,68.83s30.88,68.83,68.83,68.83c33.96,0,62.24-24.73,67.82-57.13h57.05v130.4c0,15.7,12.77,28.46,28.47,28.46h284.2c15.7,0,28.47-12.77,28.47-28.46V28.46c0-15.7-12.77-28.46-28.47-28.46ZM68.83,216c-25.05,0-45.43-20.38-45.43-45.43s20.38-45.43,45.43-45.43,45.44,20.38,45.44,45.43-20.38,45.43-45.44,45.43ZM68.83,374.87c-25.05,0-45.43-20.38-45.43-45.43s20.38-45.43,45.43-45.43,45.44,20.38,45.44,45.43-20.38,45.43-45.44,45.43ZM217.09,28.46c0-2.8,2.27-5.07,5.07-5.07h130.4v135.47h-135.47V28.46ZM352.57,317.74h-135.47v-135.47h135.47v135.47ZM352.57,476.61h-130.4c-2.8,0-5.07-2.27-5.07-5.07v-130.4h135.47v135.47ZM511.44,471.54c0,2.8-2.27,5.07-5.07,5.07h-130.4v-135.47h135.48v130.4ZM511.44,317.74h-135.48v-135.47h135.48v135.47ZM375.96,158.87V23.39h130.4c2.8,0,5.07,2.27,5.07,5.07v130.4h-135.48Z"/></svg>